# xmcd CD database file
#
# Track frame offsets:
#	150
#	13570
#	23382
#	32645
#	64315
#	77232
#	104590
#	125332
#	133640
#
# Disc length: 2078 seconds
#
# Revision: 2
# Processed by: cddbd v1.5.2PL0 Copyright (c) Steve Scherf et al.
# Submitted via: CDex 1.70beta3
#
DISCID=6d081c09
DTITLE=Sabu Martinez - Afro Temple
DYEAR=1973
DGENRE=Jazz
TTITLE0=Martin Cohen Loves Latin Percussion
TTITLE1=Meapestaculo
TTITLE2=Wounded Knee
TTITLE3=Afro Temple
TTITLE4=All Camels Hump
TTITLE5=Hotle Alyssa-Sousse, Tunisia
TTITLE6=Para Ti, Tito Rodriguez
TTITLE7=My Son Johnny And Me
TTITLE8=My Christina
EXTD=YEAR: 1973
EXTT0=
EXTT1=
EXTT2=
EXTT3=
EXTT4=
EXTT5=
EXTT6=
EXTT7=
EXTT8=
PLAYORDER=
